<svg xmlns="http://www.w3.org/2000/svg" viewBox="0 0 586 585"><defs><style>.cls-1,.cls-2,.cls-6{fill:#fff;}.cls-1,.cls-2,.cls-3{stroke:#000;stroke-miterlimit:10;}.cls-1,.cls-3{stroke-width:2px;}.cls-2{stroke-width:5px;}.cls-3{fill:none;}.cls-4{fill:#e2d731;}.cls-5{fill:#f7ec4f;}.cls-7{font-size:60px;font-family:Verdana-Bold, Verdana;font-weight:700;}</style></defs><title>Asset 1</title><g id="Layer_2" data-name="Layer 2"><g id="Layer_1-2" data-name="Layer 1"><circle class="cls-1" cx="293" cy="294" r="275"/><circle class="cls-1" cx="292.5" cy="41.5" r="40.5"/><circle class="cls-1" cx="219.5" cy="52.5" r="40.49" transform="translate(-6.17 49.38) rotate(-12.66)"/><circle class="cls-1" cx="151.5" cy="84.5" r="40.49" transform="translate(-21.96 86.47) rotate(-29.8)"/><circle class="cls-1" cx="96.5" cy="135.5" r="40.5" transform="translate(-68.39 113.49) rotate(-46.94)"/><circle class="cls-1" cx="58.5" cy="200.5" r="40.49" transform="translate(-147.4 165.47) rotate(-64.08)"/><circle class="cls-1" cx="41.5" cy="274.5" r="40.49" transform="translate(-236.12 273.61) rotate(-81.22)"/><circle class="cls-1" cx="46.5" cy="349.5" r="40.49" transform="translate(-50.32 10.47) rotate(-8.36)"/><circle class="cls-1" cx="73.5" cy="419.5" r="40.49" transform="translate(-173.44 72.51) rotate(-25.5)"/><circle class="cls-1" cx="120.5" cy="478.5" r="40.5" transform="translate(-292.27 208.13) rotate(-42.64)"/><circle class="cls-1" cx="182.5" cy="521.5" r="40.49" transform="translate(-359.98 416.72) rotate(-59.78)"/><circle class="cls-1" cx="254.5" cy="543.5" r="40.49" transform="translate(-332.5 668.4) rotate(-76.92)"/><circle class="cls-1" cx="329.5" cy="543.5" r="40.5" transform="translate(-37.65 24.69) rotate(-4.06)"/><circle class="cls-1" cx="401.5" cy="521.5" r="40.49" transform="translate(-161.42 180.49) rotate(-21.2)"/><circle class="cls-1" cx="464.5" cy="479.5" r="40.5" transform="translate(-197.27 391.55) rotate(-38.34)"/><circle class="cls-1" cx="511.5" cy="421.5" r="40.5" transform="translate(-125.65 604.08) rotate(-55.48)"/><circle class="cls-1" cx="538.5" cy="351.5" r="40.49" transform="translate(42.19 760.42) rotate(-72.62)"/><circle class="cls-1" cx="544.5" cy="276.5" r="40.5" transform="translate(265.72 819.84) rotate(-89.76)"/><circle class="cls-1" cx="528.5" cy="202.5" r="40.49" transform="translate(-36.04 162.38) rotate(-16.9)"/><circle class="cls-1" cx="491.5" cy="137.5" r="40.5" transform="translate(7.25 298.69) rotate(-34.04)"/><circle class="cls-1" cx="436.5" cy="85.5" r="40.5" transform="translate(96.25 371.99) rotate(-51.18)"/><circle class="cls-1" cx="368.5" cy="53.5" r="40.49" transform="translate(182.65 376.17) rotate(-68.32)"/><circle class="cls-2" cx="293" cy="294" r="250"/><path d="M94.93,105.4a8.37,8.37,0,0,0-9.07-1.08c4.92-4.45,15.35-2.89,23.67,3.44-8.82,7.12-18.48,10.74-22.61,8.65a8.86,8.86,0,0,0,7.33-1.73C97.43,112.12,97.73,108,94.93,105.4Z"/><path d="M86.93,116.41a7.39,7.39,0,0,1-3.45-1.74c-2.79-2.56-2.49-6.72.67-9.28a8.21,8.21,0,0,1,1.7-1.06h0a8.37,8.37,0,0,1,9.07,1.08c2.79,2.56,2.49,6.72-.67,9.28A8.86,8.86,0,0,1,86.93,116.41Z"/><path class="cls-3" d="M85.87,104.32a8.37,8.37,0,0,1,9.07,1.08c2.79,2.56,2.49,6.72-.67,9.28a8.86,8.86,0,0,1-7.33,1.73,7.39,7.39,0,0,1-3.45-1.74c-2.79-2.56-2.49-6.72.67-9.28a8.21,8.21,0,0,1,1.7-1.06"/><path class="cls-3" d="M86.09,115.84a3.54,3.54,0,0,0,.84.57c4.13,2.1,13.79-1.52,22.61-8.65l.06,0"/><path class="cls-3" d="M85.85,104.33h0c4.92-4.45,15.35-2.89,23.67,3.44l.69.53"/><path d="M48.15,172.15a8.37,8.37,0,0,0-9,1.65c3.39-5.71,13.82-7.29,23.64-3.68-6.33,9.41-14.49,15.71-19.05,14.92a8.86,8.86,0,0,0,6.49-3.82C52.51,177.83,51.57,173.77,48.15,172.15Z"/><path d="M43.75,185a7.39,7.39,0,0,1-3.81-.64c-3.43-1.63-4.36-5.69-2.09-9.07a8.21,8.21,0,0,1,1.31-1.52v0a8.37,8.37,0,0,1,9-1.65c3.43,1.63,4.36,5.69,2.09,9.07A8.86,8.86,0,0,1,43.75,185Z"/><path class="cls-3" d="M39.17,173.79a8.37,8.37,0,0,1,9-1.65c3.43,1.63,4.36,5.69,2.09,9.07A8.86,8.86,0,0,1,43.75,185a7.39,7.39,0,0,1-3.81-.64c-3.43-1.63-4.36-5.69-2.09-9.07a8.21,8.21,0,0,1,1.31-1.52"/><path class="cls-3" d="M42.77,184.73a3.54,3.54,0,0,0,1,.3c4.56.79,12.73-5.52,19.05-14.92l0-.06"/><path class="cls-3" d="M39.16,173.81v0c3.39-5.71,13.82-7.29,23.64-3.68l.82.31"/><path d="M23.11,249.72a8.37,8.37,0,0,0-8.1,4.22c1.56-6.45,11.06-11,21.5-10.49-3.28,10.85-9.22,19.28-13.81,19.88a8.86,8.86,0,0,0,5.08-5.56C29,253.86,26.86,250.26,23.11,249.72Z"/><path d="M22.7,263.33a7.39,7.39,0,0,1-3.83.51c-3.75-.55-5.84-4.15-4.67-8A8.21,8.21,0,0,1,15,254v0a8.37,8.37,0,0,1,8.1-4.22c3.75.55,5.84,4.15,4.67,8A8.86,8.86,0,0,1,22.7,263.33Z"/><path class="cls-3" d="M15,253.94a8.37,8.37,0,0,1,8.1-4.22c3.75.55,5.84,4.15,4.67,8a8.86,8.86,0,0,1-5.08,5.56,7.39,7.39,0,0,1-3.83.51c-3.75-.55-5.84-4.15-4.67-8A8.21,8.21,0,0,1,15,254"/><path class="cls-3" d="M21.68,263.33a3.54,3.54,0,0,0,1,0c4.59-.59,10.53-9,13.81-19.88l0-.07"/><path class="cls-3" d="M15,254v0c1.56-6.45,11.06-11,21.5-10.49l.87.05"/><path d="M22,331.22a8.37,8.37,0,0,0-6.5,6.42C15.14,331,22.87,323.83,33,321.28c.07,11.34-3.13,21.14-7.34,23.06a8.86,8.86,0,0,0,3.22-6.81C28.85,333.46,25.79,330.64,22,331.22Z"/><path d="M25.67,344.35A7.39,7.39,0,0,1,22.16,346c-3.75.58-6.81-2.24-6.84-6.31a8.21,8.21,0,0,1,.23-2v0a8.37,8.37,0,0,1,6.5-6.42c3.75-.58,6.81,2.24,6.84,6.31A8.86,8.86,0,0,1,25.67,344.35Z"/><path class="cls-3" d="M15.55,337.64a8.37,8.37,0,0,1,6.5-6.42c3.75-.58,6.81,2.24,6.84,6.31a8.86,8.86,0,0,1-3.22,6.81A7.39,7.39,0,0,1,22.16,346c-3.75.58-6.81-2.24-6.84-6.31a8.21,8.21,0,0,1,.23-2"/><path class="cls-3" d="M24.69,344.65a3.54,3.54,0,0,0,1-.3c4.21-1.92,7.41-11.73,7.34-23.06v-.07"/><path class="cls-3" d="M15.55,337.66v0C15.14,331,22.87,323.83,33,321.28l.85-.21"/><path d="M45.05,409.42a8.37,8.37,0,0,0-4.32,8c-2.35-6.21,2.92-15.35,11.86-20.77,3.41,10.81,3.24,21.12-.22,24.2a8.86,8.86,0,0,0,1.07-7.46C52.22,409.56,48.46,407.76,45.05,409.42Z"/><path d="M52.38,420.9a7.39,7.39,0,0,1-2.88,2.58c-3.41,1.66-7.16-.14-8.39-4a8.21,8.21,0,0,1-.37-2v0a8.37,8.37,0,0,1,4.32-8c3.41-1.66,7.16.14,8.39,4A8.86,8.86,0,0,1,52.38,420.9Z"/><path class="cls-3" d="M40.74,417.47a8.37,8.37,0,0,1,4.32-8c3.41-1.66,7.16.14,8.39,4a8.86,8.86,0,0,1-1.07,7.46,7.39,7.39,0,0,1-2.88,2.58c-3.41,1.66-7.16-.14-8.39-4a8.21,8.21,0,0,1-.37-2"/><path class="cls-3" d="M51.54,421.47a3.54,3.54,0,0,0,.84-.57c3.46-3.08,3.62-13.39.22-24.2l0-.07"/><path class="cls-3" d="M40.74,417.49v0c-2.35-6.21,2.92-15.35,11.86-20.77l.75-.45"/><path d="M90.08,477.37a8.37,8.37,0,0,0-1.75,9c-4.07-5.24-1.73-15.53,5.21-23.35,6.44,9.33,9.32,19.23,6.93,23.19a8.86,8.86,0,0,0-1.18-7.44C97,475.39,92.85,474.77,90.08,477.37Z"/><path d="M100.46,486.17a7.39,7.39,0,0,1-2,3.31c-2.77,2.59-6.89,2-9.21-1.37a8.21,8.21,0,0,1-.93-1.78v0a8.37,8.37,0,0,1,1.75-9c2.77-2.59,6.89-2,9.21,1.37A8.86,8.86,0,0,1,100.46,486.17Z"/><path class="cls-3" d="M88.33,486.33a8.37,8.37,0,0,1,1.75-9c2.77-2.59,6.89-2,9.21,1.37a8.86,8.86,0,0,1,1.18,7.44,7.39,7.39,0,0,1-2,3.31c-2.77,2.59-6.89,2-9.21-1.37a8.21,8.21,0,0,1-.93-1.78"/><path class="cls-3" d="M99.83,487a3.54,3.54,0,0,0,.64-.8c2.4-4-.48-13.86-6.93-23.19l0-.06"/><path class="cls-3" d="M88.34,486.34v0c-4.07-5.24-1.73-15.53,5.21-23.35l.58-.65"/><path d="M153.13,529a8.37,8.37,0,0,0,1,9.08c-5.44-3.81-6.23-14.33-1.9-23.85,8.9,7,14.58,15.63,13.45,20.12a8.86,8.86,0,0,0-3.32-6.76C159.13,525.1,155,525.73,153.13,529Z"/><path d="M165.65,534.38a7.39,7.39,0,0,1-.92,3.75c-1.88,3.29-6,3.92-9.2,1.41a8.21,8.21,0,0,1-1.41-1.42h0a8.37,8.37,0,0,1-1-9.08c1.88-3.29,6-3.92,9.2-1.41A8.86,8.86,0,0,1,165.65,534.38Z"/><path class="cls-3" d="M154.1,538.11a8.37,8.37,0,0,1-1-9.08c1.88-3.29,6-3.92,9.2-1.41a8.86,8.86,0,0,1,3.32,6.76,7.39,7.39,0,0,1-.92,3.75c-1.88,3.29-6,3.92-9.2,1.41a8.21,8.21,0,0,1-1.41-1.42"/><path class="cls-3" d="M165.28,535.33a3.54,3.54,0,0,0,.37-.95c1.13-4.49-4.55-13.1-13.45-20.12l-.06,0"/><path class="cls-3" d="M154.11,538.12h0c-5.44-3.81-6.23-14.33-1.9-23.85.12-.26.24-.53.37-.79"/><path d="M228.61,559.81a8.37,8.37,0,0,0,3.6,8.39c-6.32-2-10.18-11.86-8.84-22.23,10.58,4.08,18.54,10.64,18.78,15.26a8.86,8.86,0,0,0-5.16-5.48C233.18,554.29,229.43,556.11,228.61,559.81Z"/><path d="M242.15,561.24a7.39,7.39,0,0,1,.22,3.86c-.83,3.7-4.57,5.52-8.38,4.06a8.21,8.21,0,0,1-1.77-.94h0a8.37,8.37,0,0,1-3.6-8.39c.83-3.7,4.57-5.52,8.38-4.06A8.86,8.86,0,0,1,242.15,561.24Z"/><path class="cls-3" d="M232.21,568.2a8.37,8.37,0,0,1-3.6-8.39c.83-3.7,4.57-5.52,8.38-4.06a8.86,8.86,0,0,1,5.16,5.48,7.39,7.39,0,0,1,.22,3.86c-.83,3.7-4.57,5.52-8.38,4.06a8.21,8.21,0,0,1-1.77-.94"/><path class="cls-3" d="M242.07,562.25a3.54,3.54,0,0,0,.08-1c-.25-4.62-8.21-11.18-18.78-15.26l-.07,0"/><path class="cls-3" d="M232.22,568.21h0c-6.32-2-10.18-11.86-8.84-22.23,0-.29.07-.57.12-.86"/><path d="M309.8,567a8.37,8.37,0,0,0,5.91,7c-6.64-.08-13.22-8.33-15-18.63,11.31.78,20.85,4.7,22.45,9a8.86,8.86,0,0,0-6.55-3.72C312.55,560.36,309.5,563.2,309.8,567Z"/><path d="M323.16,564.35a7.39,7.39,0,0,1,1.35,3.62c.3,3.78-2.74,6.62-6.81,6.34a8.21,8.21,0,0,1-2-.38h0a8.37,8.37,0,0,1-5.91-7c-.3-3.78,2.74-6.62,6.81-6.34A8.86,8.86,0,0,1,323.16,564.35Z"/><path class="cls-3" d="M315.72,573.94a8.37,8.37,0,0,1-5.91-7c-.3-3.78,2.74-6.62,6.81-6.34a8.86,8.86,0,0,1,6.55,3.72,7.39,7.39,0,0,1,1.35,3.62c.3,3.78-2.74,6.62-6.81,6.34a8.21,8.21,0,0,1-2-.38"/><path class="cls-3" d="M323.39,565.35a3.54,3.54,0,0,0-.23-1c-1.6-4.34-11.14-8.27-22.45-9h-.07"/><path class="cls-3" d="M315.73,573.94h0c-6.64-.08-13.22-8.33-15-18.63-.05-.28-.1-.57-.14-.86"/><path d="M389.51,549.91a8.37,8.37,0,0,0,7.7,4.91c-6.37,1.88-15.09-4.06-19.83-13.38,11-2.59,21.31-1.65,24.12,2a8.86,8.86,0,0,0-7.36-1.62C390.18,542.77,388.1,546.38,389.51,549.91Z"/><path d="M401.5,543.46a7.39,7.39,0,0,1,2.36,3.06c1.4,3.52-.67,7.13-4.64,8.07a8.21,8.21,0,0,1-2,.22h0a8.37,8.37,0,0,1-7.7-4.91c-1.4-3.52.67-7.13,4.64-8.07A8.86,8.86,0,0,1,401.5,543.46Z"/><path class="cls-3" d="M397.21,554.81a8.37,8.37,0,0,1-7.7-4.91c-1.4-3.52.67-7.13,4.64-8.07a8.86,8.86,0,0,1,7.36,1.62,7.39,7.39,0,0,1,2.36,3.06c1.4,3.52-.67,7.13-4.64,8.07a8.21,8.21,0,0,1-2,.22"/><path class="cls-3" d="M402,544.34a3.54,3.54,0,0,0-.51-.88c-2.81-3.68-13.08-4.62-24.12-2l-.07,0"/><path class="cls-3" d="M397.22,554.81h0c-6.37,1.88-15.09-4.06-19.83-13.38-.13-.26-.26-.51-.39-.78"/><path d="M460.64,510.1a8.37,8.37,0,0,0,8.81,2.42c-5.53,3.67-15.61.56-22.89-6.95,9.79-5.72,19.88-7.86,23.64-5.17a8.86,8.86,0,0,0-7.51.62C459.18,503.08,458.26,507.15,460.64,510.1Z"/><path d="M470.2,500.4a7.39,7.39,0,0,1,3.16,2.23c2.38,3,1.46,7-2.05,9.08a8.21,8.21,0,0,1-1.84.79h0a8.37,8.37,0,0,1-8.81-2.42c-2.38-3-1.46-7,2.05-9.08A8.86,8.86,0,0,1,470.2,500.4Z"/><path class="cls-3" d="M469.44,512.52a8.37,8.37,0,0,1-8.81-2.42c-2.38-3-1.46-7,2.05-9.08a8.86,8.86,0,0,1,7.51-.62,7.39,7.39,0,0,1,3.16,2.23c2.38,3,1.46,7-2.05,9.08a8.21,8.21,0,0,1-1.84.79"/><path class="cls-3" d="M470.94,501.1a3.54,3.54,0,0,0-.75-.69c-3.77-2.69-13.86-.56-23.64,5.17l-.06,0"/><path class="cls-3" d="M469.46,512.51h0c-5.53,3.67-15.61.56-22.89-6.95l-.6-.63"/><path d="M516.88,451.1a8.37,8.37,0,0,0,9.13-.28c-4.2,5.14-14.76,5.14-23.92.11,7.66-8.35,16.68-13.36,21.07-11.91a8.86,8.86,0,0,0-7,2.8C513.41,444.82,513.73,449,516.88,451.1Z"/><path d="M523.16,439a7.39,7.39,0,0,1,3.67,1.2c3.14,2.12,3.46,6.27.71,9.28a8.21,8.21,0,0,1-1.52,1.3h0a8.37,8.37,0,0,1-9.13.28c-3.14-2.12-3.46-6.27-.71-9.28A8.86,8.86,0,0,1,523.16,439Z"/><path class="cls-3" d="M526,450.81a8.37,8.37,0,0,1-9.13.28c-3.14-2.12-3.46-6.27-.71-9.28a8.86,8.86,0,0,1,7-2.8,7.39,7.39,0,0,1,3.67,1.2c3.14,2.12,3.46,6.27.71,9.28a8.21,8.21,0,0,1-1.52,1.3"/><path class="cls-3" d="M524.07,439.46a3.54,3.54,0,0,0-.92-.44c-4.39-1.46-13.41,3.55-21.07,11.91l0,.05"/><path class="cls-3" d="M526,450.8h0c-4.2,5.14-14.76,5.14-23.92.11l-.76-.43"/><path d="M553.23,378.14a8.37,8.37,0,0,0,8.64-3c-2.5,6.15-12.58,9.26-22.83,7.15,4.86-10.24,12-17.69,16.63-17.59a8.86,8.86,0,0,0-5.86,4.74C548.07,373.17,549.6,377,553.23,378.14Z"/><path d="M555.67,364.75a7.39,7.39,0,0,1,3.86.07c3.63,1.1,5.16,5,3.42,8.66a8.21,8.21,0,0,1-1.07,1.69v0a8.37,8.37,0,0,1-8.64,3c-3.63-1.1-5.16-5-3.42-8.66A8.86,8.86,0,0,1,555.67,364.75Z"/><path class="cls-3" d="M561.87,375.18a8.37,8.37,0,0,1-8.64,3c-3.63-1.1-5.16-5-3.42-8.66a8.86,8.86,0,0,1,5.86-4.74,7.39,7.39,0,0,1,3.86.07c3.63,1.1,5.16,5,3.42,8.66a8.21,8.21,0,0,1-1.07,1.69"/><path class="cls-3" d="M556.68,364.9a3.54,3.54,0,0,0-1-.15c-4.63-.1-11.76,7.35-16.63,17.59l0,.07"/><path class="cls-3" d="M561.88,375.16v0c-2.5,6.15-12.58,9.26-22.83,7.15l-.85-.18"/><path d="M566.47,297.71a8.37,8.37,0,0,0,7.38-5.38c-.58,6.61-9.3,12.56-19.7,13.56,1.63-11.22,6.25-20.44,10.71-21.71a8.86,8.86,0,0,0-4.2,6.25C560.08,294.48,562.68,297.73,566.47,297.71Z"/><path d="M564.86,284.19a7.39,7.39,0,0,1,3.71-1.07c3.79,0,6.39,3.23,5.82,7.26a8.21,8.21,0,0,1-.53,1.93v0a8.37,8.37,0,0,1-7.38,5.38c-3.79,0-6.39-3.23-5.82-7.26A8.86,8.86,0,0,1,564.86,284.19Z"/><path class="cls-3" d="M573.85,292.34a8.37,8.37,0,0,1-7.38,5.38c-3.79,0-6.39-3.23-5.82-7.26a8.86,8.86,0,0,1,4.2-6.25,7.39,7.39,0,0,1,3.71-1.07c3.79,0,6.39,3.23,5.82,7.26a8.21,8.21,0,0,1-.53,1.93"/><path class="cls-3" d="M565.86,284a3.54,3.54,0,0,0-1,.15c-4.45,1.27-9.08,10.49-10.71,21.71V306"/><path class="cls-3" d="M573.86,292.32v0c-.58,6.61-9.3,12.56-19.7,13.56l-.87.08"/><path d="M555.42,217a8.37,8.37,0,0,0,5.47-7.31c1.39,6.49-5.18,14.74-14.83,18.77-1.75-11.2,0-21.37,3.83-23.9a8.86,8.86,0,0,0-2.17,7.21C548.36,215.75,551.8,218.09,555.42,217Z"/><path d="M549.89,204.51a7.39,7.39,0,0,1,3.23-2.12c3.62-1.13,7.06,1.21,7.7,5.23a8.21,8.21,0,0,1,.07,2v0a8.37,8.37,0,0,1-5.47,7.31c-3.62,1.13-7.06-1.21-7.7-5.23A8.86,8.86,0,0,1,549.89,204.51Z"/><path class="cls-3" d="M560.89,209.64a8.37,8.37,0,0,1-5.47,7.31c-3.62,1.13-7.06-1.21-7.7-5.23a8.86,8.86,0,0,1,2.17-7.21,7.39,7.39,0,0,1,3.23-2.12c3.62-1.13,7.06,1.21,7.7,5.23a8.21,8.21,0,0,1,.07,2"/><path class="cls-3" d="M550.81,204.07a3.54,3.54,0,0,0-.92.44c-3.88,2.53-5.58,12.7-3.83,23.9v.07"/><path class="cls-3" d="M560.89,209.62v0c1.39,6.49-5.18,14.74-14.83,18.77l-.81.33"/><path d="M521.06,143a8.37,8.37,0,0,0,3.07-8.6c3.24,5.79-.61,15.61-8.64,22.31-5-10.19-6.34-20.41-3.38-24a8.86,8.86,0,0,0,.05,7.53C514,144,517.94,145.19,521.06,143Z"/><path d="M512.11,132.78a7.39,7.39,0,0,1,2.46-3c3.12-2.15,7.11-.93,8.9,2.73a8.21,8.21,0,0,1,.65,1.9v0a8.37,8.37,0,0,1-3.07,8.6c-3.12,2.15-7.11.93-8.9-2.73A8.86,8.86,0,0,1,512.11,132.78Z"/><path class="cls-3" d="M524.13,134.44a8.37,8.37,0,0,1-3.07,8.6c-3.12,2.15-7.11.93-8.9-2.73a8.86,8.86,0,0,1-.05-7.53,7.39,7.39,0,0,1,2.46-3c3.12-2.15,7.11-.93,8.9,2.73a8.21,8.21,0,0,1,.65,1.9"/><path class="cls-3" d="M512.86,132.09a3.54,3.54,0,0,0-.75.69c-3,3.56-1.59,13.78,3.38,24l0,.07"/><path class="cls-3" d="M524.12,134.42v0c3.24,5.79-.61,15.61-8.64,22.31l-.67.55"/><path d="M466.44,82.53a8.37,8.37,0,0,0,.4-9.12c4.81,4.58,4,15.1-1.69,23.86-7.75-8.27-12.08-17.63-10.29-21.9a8.86,8.86,0,0,0,2.27,7.18C459.93,85.51,464.09,85.51,466.44,82.53Z"/><path d="M454.87,75.37a7.39,7.39,0,0,1,1.48-3.57c2.35-3,6.52-3,9.31,0a8.21,8.21,0,0,1,1.18,1.62h0a8.37,8.37,0,0,1-.4,9.12c-2.35,3-6.52,3-9.31,0A8.86,8.86,0,0,1,454.87,75.37Z"/><path class="cls-3" d="M466.84,73.41a8.37,8.37,0,0,1-.4,9.12c-2.35,3-6.52,3-9.31,0a8.86,8.86,0,0,1-2.27-7.18,7.39,7.39,0,0,1,1.48-3.57c2.35-3,6.52-3,9.31,0a8.21,8.21,0,0,1,1.18,1.62"/><path class="cls-3" d="M455.38,74.48a3.54,3.54,0,0,0-.51.88c-1.78,4.27,2.54,13.64,10.29,21.9l.05.05"/><path class="cls-3" d="M466.83,73.4h0c4.81,4.58,4,15.1-1.69,23.86-.16.24-.31.48-.48.73"/><path d="M396.42,40.81a8.37,8.37,0,0,0-2.3-8.84c5.94,3,8.29,13.24,5.42,23.3-9.85-5.62-16.74-13.29-16.29-17.9a8.86,8.86,0,0,0,4.29,6.19C391.07,45.58,395,44.35,396.42,40.81Z"/><path d="M383.24,37.37a7.39,7.39,0,0,1,.36-3.85c1.37-3.54,5.35-4.77,8.89-2.76A8.21,8.21,0,0,1,394.1,32h0a8.37,8.37,0,0,1,2.3,8.84c-1.37,3.54-5.35,4.77-8.89,2.76A8.86,8.86,0,0,1,383.24,37.37Z"/><path class="cls-3" d="M394.11,32a8.37,8.37,0,0,1,2.3,8.84c-1.37,3.54-5.35,4.77-8.89,2.76a8.86,8.86,0,0,1-4.29-6.19,7.39,7.39,0,0,1,.36-3.85c1.37-3.54,5.35-4.77,8.89-2.76A8.21,8.21,0,0,1,394.1,32"/><path class="cls-3" d="M383.47,36.38a3.54,3.54,0,0,0-.23,1c-.45,4.61,6.44,12.28,16.29,17.9l.06,0"/><path class="cls-3" d="M394.1,32h0c5.94,3,8.29,13.24,5.42,23.3-.08.28-.16.56-.25.84"/><path d="M317.21,21.58a8.37,8.37,0,0,0-4.81-7.76c6.55,1.07,11.83,10.21,12,20.67-11.07-2.46-19.91-7.77-20.84-12.3a8.86,8.86,0,0,0,5.92,4.66C313.5,27.71,316.94,25.36,317.21,21.58Z"/><path d="M303.61,22.17a7.39,7.39,0,0,1-.79-3.78c.27-3.78,3.7-6.13,7.68-5.25a8.21,8.21,0,0,1,1.89.67h0a8.37,8.37,0,0,1,4.81,7.76c-.27,3.78-3.7,6.13-7.68,5.25A8.86,8.86,0,0,1,303.61,22.17Z"/><path class="cls-3" d="M312.4,13.81a8.37,8.37,0,0,1,4.81,7.76c-.27,3.78-3.7,6.13-7.68,5.25a8.86,8.86,0,0,1-5.92-4.66,7.39,7.39,0,0,1-.79-3.78c.27-3.78,3.7-6.13,7.68-5.25a8.21,8.21,0,0,1,1.89.67"/><path class="cls-3" d="M303.53,21.16a3.54,3.54,0,0,0,.07,1c.93,4.53,9.78,9.84,20.84,12.3l.07,0"/><path class="cls-3" d="M312.38,13.81h0c6.55,1.07,11.83,10.21,12,20.67,0,.29,0,.58,0,.87"/><path d="M235.85,26.54a8.37,8.37,0,0,0-6.88-6c6.57-.9,14.31,6.27,17.6,16.2-11.3.91-21.32-1.56-23.54-5.61a8.86,8.86,0,0,0,7,2.7C234.12,33.49,236.71,30.23,235.85,26.54Z"/><path d="M223,31.12a7.39,7.39,0,0,1-1.87-3.38c-.86-3.69,1.73-7,5.79-7.28a8.21,8.21,0,0,1,2,.08h0a8.37,8.37,0,0,1,6.88,6c.86,3.69-1.73,7-5.79,7.28A8.86,8.86,0,0,1,223,31.12Z"/><path class="cls-3" d="M229,20.54a8.37,8.37,0,0,1,6.88,6c.86,3.69-1.73,7-5.79,7.28a8.86,8.86,0,0,1-7-2.7,7.39,7.39,0,0,1-1.87-3.38c-.86-3.69,1.73-7,5.79-7.28a8.21,8.21,0,0,1,2,.08"/><path class="cls-3" d="M222.65,30.17a3.54,3.54,0,0,0,.37.95c2.23,4.06,12.24,6.52,23.54,5.61h.07"/><path class="cls-3" d="M228.95,20.54h0c6.57-.9,14.31,6.27,17.6,16.2.09.27.18.55.27.83"/><path d="M159.56,55.26a8.37,8.37,0,0,0-8.35-3.71c6-2.8,15.52,1.78,21.59,10.29-10.53,4.2-20.83,4.8-24.15,1.57a8.86,8.86,0,0,0,7.52.51C160,62.42,161.47,58.54,159.56,55.26Z"/><path d="M148.66,63.42a7.39,7.39,0,0,1-2.79-2.68c-1.91-3.28-.39-7.15,3.39-8.67a8.21,8.21,0,0,1,1.94-.51h0a8.37,8.37,0,0,1,8.35,3.71c1.91,3.28.39,7.15-3.39,8.67A8.86,8.86,0,0,1,148.66,63.42Z"/><path class="cls-3" d="M151.22,51.55a8.37,8.37,0,0,1,8.35,3.71c1.91,3.28.39,7.15-3.39,8.67a8.86,8.86,0,0,1-7.52-.51,7.39,7.39,0,0,1-2.79-2.68c-1.91-3.28-.39-7.15,3.39-8.67a8.21,8.21,0,0,1,1.94-.51"/><path class="cls-3" d="M148,62.62a3.54,3.54,0,0,0,.63.8c3.32,3.22,13.62,2.62,24.15-1.57l.07,0"/><path class="cls-3" d="M151.2,51.56h0c6-2.8,15.52,1.78,21.59,10.29.17.23.34.47.5.71"/><path d="M95.13,105.19a8.37,8.37,0,0,0-9.07-1.08c4.92-4.45,15.36-2.88,23.67,3.47-8.83,7.11-18.49,10.72-22.61,8.62a8.86,8.86,0,0,0,7.33-1.73C97.62,111.91,97.92,107.76,95.13,105.19Z"/><path d="M87.12,116.2a7.39,7.39,0,0,1-3.45-1.74c-2.79-2.57-2.49-6.72.68-9.28a8.21,8.21,0,0,1,1.7-1.06h0a8.37,8.37,0,0,1,9.07,1.08c2.79,2.57,2.49,6.72-.68,9.28A8.86,8.86,0,0,1,87.12,116.2Z"/><path class="cls-3" d="M86.06,104.11a8.37,8.37,0,0,1,9.07,1.08c2.79,2.57,2.49,6.72-.68,9.28a8.86,8.86,0,0,1-7.33,1.73,7.39,7.39,0,0,1-3.45-1.74c-2.79-2.57-2.49-6.72.68-9.28a8.21,8.21,0,0,1,1.7-1.06"/><path class="cls-3" d="M86.28,115.62a3.54,3.54,0,0,0,.84.58c4.13,2.1,13.79-1.51,22.61-8.62l.06,0"/><path class="cls-3" d="M86,104.12h0c4.92-4.45,15.36-2.88,23.67,3.47l.69.53"/><path class="cls-4" d="M515.47,279c8.38,119.81-84.21,223.88-206.8,232.45S79.91,429.83,71.53,310,155.73,86.13,278.33,77.56,507.09,159.17,515.47,279Z"/><circle class="cls-5" cx="294" cy="294" r="205.99" transform="translate(-19.79 21.22) rotate(-4)"/><rect class="cls-6" x="69.19" y="231.96" width="451.42" height="125.63" transform="translate(-62.55 80.1) rotate(-14)"/><rect class="cls-4" x="79.75" y="219.78" width="392.52" height="13.5" transform="translate(-46.6 73.5) rotate(-14)"/><rect class="cls-4" x="112.14" y="357.01" width="400.11" height="13.5" transform="translate(-78.73 86.33) rotate(-14)"/><text class="cls-7" transform="translate(209 329) rotate(-14)">Login </text></g></g></svg>